<?xml version="1.0" encoding="UTF-8" standalone="no"?>
<!-- Created with Inkscape (http://www.inkscape.org/) -->

<svg
   xmlns:dc="http://purl.org/dc/elements/1.1/"
   xmlns:cc="http://creativecommons.org/ns#"
   xmlns:rdf="http://www.w3.org/1999/02/22-rdf-syntax-ns#"
   xmlns:svg="http://www.w3.org/2000/svg"
   xmlns="http://www.w3.org/2000/svg"
   version="1.0"
   width="454.44672"
   height="116"
   id="full-alpha"
   style="enable-background:new">
  <defs
     id="defs4958">
    <filter
       color-interpolation-filters="sRGB"
       id="filter3145">
      <feBlend
         in2="BackgroundImage"
         mode="darken"
         id="feBlend3147" />
    </filter>
  </defs>
  <metadata
     id="metadata112">
    <rdf:RDF>
      <cc:Work
         rdf:about="">
        <dc:format>image/svg+xml</dc:format>
        <dc:type
           rdf:resource="http://purl.org/dc/dcmitype/StillImage" />
        <dc:title></dc:title>
      </cc:Work>
    </rdf:RDF>
  </metadata>
  <rect
     width="23"
     height="18"
     x="190.5"
     y="97.5"
     id="RALT"
     style="fill:#e5d8b2;stroke:#000000" />
  <rect
     width="18"
     height="18"
     x="45.5"
     y="78.5"
     id="AB01"
     style="fill:#e5d8b2;stroke:#000000" />
  <rect
     width="18"
     height="18"
     x="38.5"
     y="21.5"
     id="AE02"
     style="fill:#e5d8b2;stroke:#000000" />
  <rect
     width="18"
     height="18"
     x="57.5"
     y="21.5"
     id="AE03"
     style="fill:#e5d8b2;stroke:#000000" />
  <rect
     width="18"
     height="18"
     x="181.5"
     y="40.5"
     id="AD09"
     style="fill:#e5d8b2;stroke:#000000" />
  <rect
     width="18"
     height="18"
     x="19.5"
     y="21.5"
     id="AE01"
     style="fill:#e5d8b2;stroke:#000000" />
  <rect
     width="18"
     height="18"
     x="114.5"
     y="21.5"
     id="AE06"
     style="fill:#e5d8b2;stroke:#000000" />
  <rect
     width="18"
     height="18"
     x="133.5"
     y="21.5"
     id="AE07"
     style="fill:#e5d8b2;stroke:#000000" />
  <rect
     width="18"
     height="18"
     x="76.5"
     y="21.5"
     id="AE04"
     style="fill:#e5d8b2;stroke:#000000" />
  <rect
     width="18"
     height="18"
     x="95.5"
     y="21.5"
     id="AE05"
     style="fill:#e5d8b2;stroke:#000000" />
  <rect
     width="18"
     height="18"
     x="67.5"
     y="40.5"
     id="AD03"
     style="fill:#e5d8b2;stroke:#000000" />
  <rect
     width="18"
     height="18"
     x="48.5"
     y="40.5"
     id="AD02"
     style="fill:#e5d8b2;stroke:#000000" />
  <rect
     width="18"
     height="18"
     x="29.5"
     y="40.5"
     id="AD01"
     style="fill:#e5d8b2;stroke:#000000" />
  <rect
     width="18"
     height="18"
     x="171.5"
     y="21.5"
     id="AE09"
     style="fill:#e5d8b2;stroke:#000000" />
  <rect
     width="18"
     height="18"
     x="143.5"
     y="40.5"
     id="AD07"
     style="fill:#e5d8b2;stroke:#000000" />
  <rect
     width="18"
     height="18"
     x="124.5"
     y="40.5"
     id="AD06"
     style="fill:#e5d8b2;stroke:#000000" />
  <rect
     width="18"
     height="18"
     x="105.5"
     y="40.5"
     id="AD05"
     style="fill:#e5d8b2;stroke:#000000" />
  <rect
     width="18"
     height="18"
     x="86.5"
     y="40.5"
     id="AD04"
     style="fill:#e5d8b2;stroke:#000000" />
  <rect
     width="18"
     height="18"
     x="216.5"
     y="78.5"
     id="AB10"
     style="fill:#e5d8b2;stroke:#000000" />
  <rect
     width="18"
     height="18"
     x="224.5"
     y="59.5"
     id="AC11"
     style="fill:#e5d8b2;stroke:#000000" />
  <rect
     width="18"
     height="18"
     x="205.5"
     y="59.5"
     id="AC10"
     style="fill:#e5d8b2;stroke:#000000" />
  <rect
     width="23"
     height="18"
     x="262.5"
     y="97.5"
     id="RCTL"
     style="fill:#e5d8b2;stroke:#000000" />
  <rect
     width="27"
     height="18"
     x="0.5"
     y="97.5"
     id="LCTL"
     style="fill:#e5d8b2;stroke:#000000" />
  <rect
     width="28"
     height="18"
     x="0.5"
     y="40.5"
     id="TAB"
     style="fill:#e5d8b2;stroke:#000000" />
  <rect
     width="23"
     height="18"
     x="52.5"
     y="97.5"
     id="LALT"
     style="fill:#e5d8b2;stroke:#000000" />
  <rect
     width="18"
     height="18"
     x="0.5"
     y="21.5"
     id="TLDE"
     style="fill:#e5d8b2;stroke:#000000" />
  <rect
     width="18"
     height="18"
     x="26.5"
     y="78.5"
     id="LSGT"
     style="fill:#e5d8b2;stroke:#000000" />
  <rect
     width="25"
     height="18"
     x="0.5"
     y="78.5"
     id="LFSH"
     style="fill:#e5d8b2;stroke:#000000" />
  <rect
     width="38"
     height="18"
     x="247.5"
     y="21.5"
     id="BKSP"
     style="fill:#e5d8b2;stroke:#000000" />
  <rect
     width="33"
     height="18"
     x="0.5"
     y="59.5"
     id="CAPS"
     style="fill:#e5d8b2;stroke:#000000" />
  <rect
     width="28"
     height="18"
     x="257.5"
     y="40.5"
     id="BKSL"
     style="fill:#e5d8b2;stroke:#000000" />
  <rect
     width="42"
     height="18"
     x="243.5"
     y="59.5"
     id="RTRN"
     style="fill:#e5d8b2;stroke:#000000" />
  <rect
     width="23"
     height="18"
     x="238.5"
     y="97.5"
     id="MENU"
     style="fill:#e5d8b2;stroke:#000000" />
  <rect
     width="18"
     height="18"
     x="200.5"
     y="40.5"
     id="AD10"
     style="fill:#e5d8b2;stroke:#000000" />
  <rect
     width="18"
     height="18"
     x="219.5"
     y="40.5"
     id="AD11"
     style="fill:#e5d8b2;stroke:#000000" />
  <rect
     width="18"
     height="18"
     x="238.5"
     y="40.5"
     id="AD12"
     style="fill:#e5d8b2;stroke:#000000" />
  <rect
     width="18"
     height="18"
     x="178.5"
     y="78.5"
     id="AB08"
     style="fill:#e5d8b2;stroke:#000000" />
  <rect
     width="18"
     height="18"
     x="209.5"
     y="21.5"
     id="AE11"
     style="fill:#e5d8b2;stroke:#000000" />
  <rect
     width="18"
     height="18"
     x="190.5"
     y="21.5"
     id="AE10"
     style="fill:#e5d8b2;stroke:#000000" />
  <rect
     width="18"
     height="18"
     x="228.5"
     y="21.5"
     id="AE12"
     style="fill:#e5d8b2;stroke:#000000" />
  <rect
     width="18"
     height="18"
     x="91.5"
     y="59.5"
     id="AC04"
     style="fill:#e5d8b2;stroke:#000000" />
  <rect
     width="18"
     height="18"
     x="110.5"
     y="59.5"
     id="AC05"
     style="fill:#e5d8b2;stroke:#000000" />
  <rect
     width="18"
     height="18"
     x="129.5"
     y="59.5"
     id="AC06"
     style="fill:#e5d8b2;stroke:#000000" />
  <rect
     width="18"
     height="18"
     x="148.5"
     y="59.5"
     id="AC07"
     style="fill:#e5d8b2;stroke:#000000" />
  <rect
     width="18"
     height="18"
     x="197.5"
     y="78.5"
     id="AB09"
     style="fill:#e5d8b2;stroke:#000000" />
  <rect
     width="18"
     height="18"
     x="34.5"
     y="59.5"
     id="AC01"
     style="fill:#e5d8b2;stroke:#000000" />
  <rect
     width="18"
     height="18"
     x="53.5"
     y="59.5"
     id="AC02"
     style="fill:#e5d8b2;stroke:#000000" />
  <rect
     width="18"
     height="18"
     x="72.5"
     y="59.5"
     id="AC03"
     style="fill:#e5d8b2;stroke:#000000" />
  <rect
     width="18"
     height="18"
     x="121.5"
     y="78.5"
     id="AB05"
     style="fill:#e5d8b2;stroke:#000000" />
  <rect
     width="18"
     height="18"
     x="102.5"
     y="78.5"
     id="AB04"
     style="fill:#e5d8b2;stroke:#000000" />
  <rect
     width="18"
     height="18"
     x="152.5"
     y="21.5"
     id="AE08"
     style="fill:#e5d8b2;stroke:#000000" />
  <rect
     width="18"
     height="18"
     x="140.5"
     y="78.5"
     id="AB06"
     style="fill:#e5d8b2;stroke:#000000" />
  <rect
     width="18"
     height="18"
     x="167.5"
     y="59.5"
     id="AC08"
     style="fill:#e5d8b2;stroke:#000000" />
  <rect
     width="18"
     height="18"
     x="186.5"
     y="59.5"
     id="AC09"
     style="fill:#e5d8b2;stroke:#000000" />
  <rect
     width="18"
     height="18"
     x="83.5"
     y="78.5"
     id="AB03"
     style="fill:#e5d8b2;stroke:#000000" />
  <rect
     width="18"
     height="18"
     x="64.5"
     y="78.5"
     id="AB02"
     style="fill:#e5d8b2;stroke:#000000" />
  <rect
     width="18"
     height="18"
     x="162.5"
     y="40.5"
     id="AD08"
     style="fill:#e5d8b2;stroke:#000000" />
  <rect
     width="23"
     height="18"
     x="214.5"
     y="97.5"
     id="RWIN"
     style="fill:#e5d8b2;stroke:#000000" />
  <rect
     width="113"
     height="18"
     x="76.5"
     y="97.5"
     id="SPCE"
     style="fill:#e5d8b2;stroke:#000000" />
  <rect
     width="50"
     height="18"
     x="235.5"
     y="78.5"
     id="RTSH"
     style="fill:#e5d8b2;stroke:#000000" />
  <rect
     width="23"
     height="18"
     x="28.5"
     y="97.5"
     id="LWIN"
     style="fill:#e5d8b2;stroke:#000000" />
  <rect
     width="18"
     height="18"
     x="159.5"
     y="78.5"
     id="AB07"
     style="fill:#e5d8b2;stroke:#000000" />
  <rect
     width="18"
     height="18"
     x="288.5"
     y="21.5"
     id="INS"
     style="fill:#e5d8b2;stroke:#000000" />
  <rect
     width="18"
     height="18"
     x="307.5"
     y="21.5"
     id="HOME"
     style="fill:#e5d8b2;stroke:#000000" />
  <rect
     width="18"
     height="18"
     x="288.5"
     y="40.5"
     id="DELE"
     style="fill:#e5d8b2;stroke:#000000" />
  <rect
     width="18"
     height="18"
     x="307.5"
     y="40.5"
     id="END"
     style="fill:#e5d8b2;stroke:#000000" />
  <rect
     width="18"
     height="18"
     x="326.5"
     y="21.5"
     id="PGUP"
     style="fill:#e5d8b2;stroke:#000000" />
  <rect
     width="18"
     height="18"
     x="326.5"
     y="40.5"
     id="PGDN"
     style="fill:#e5d8b2;stroke:#000000" />
  <rect
     width="18"
     height="18"
     x="307.5"
     y="78.5"
     id="UP"
     style="fill:#e5d8b2;stroke:#000000" />
  <rect
     width="18"
     height="18"
     x="307.5"
     y="97.5"
     id="DOWN"
     style="fill:#e5d8b2;stroke:#000000" />
  <rect
     width="18"
     height="18"
     x="288.5"
     y="97.5"
     id="LEFT"
     style="fill:#e5d8b2;stroke:#000000" />
  <rect
     width="18"
     height="18"
     x="326.5"
     y="97.5"
     id="RGHT"
     style="fill:#e5d8b2;stroke:#000000" />
  <rect
     width="18"
     height="18"
     x="220"
     y="0.5"
     id="F10"
     style="fill:#e5d8b2;stroke:#000000" />
  <rect
     width="18"
     height="18"
     x="67"
     y="0.5"
     id="F3"
     style="fill:#e5d8b2;stroke:#000000" />
  <rect
     width="18"
     height="18"
     x="48"
     y="0.5"
     id="F2"
     style="fill:#e5d8b2;stroke:#000000" />
  <rect
     width="18"
     height="18"
     x="0.5"
     y="0.5"
     id="ESC"
     style="fill:#e5d8b2;stroke:#000000" />
  <rect
     width="18"
     height="18"
     x="258"
     y="0.5"
     id="F12"
     style="fill:#e5d8b2;stroke:#000000" />
  <rect
     width="18"
     height="18"
     x="239"
     y="0.5"
     id="F11"
     style="fill:#e5d8b2;stroke:#000000" />
  <rect
     width="18"
     height="18"
     x="201"
     y="0.5"
     id="F9"
     style="fill:#e5d8b2;stroke:#000000" />
  <rect
     width="18"
     height="18"
     x="133.5"
     y="0.5"
     id="F6"
     style="fill:#e5d8b2;stroke:#000000" />
  <rect
     width="18"
     height="18"
     x="152.5"
     y="0.5"
     id="F7"
     style="fill:#e5d8b2;stroke:#000000" />
  <rect
     width="18"
     height="18"
     x="29"
     y="0.5"
     id="F1"
     style="fill:#e5d8b2;stroke:#000000" />
  <rect
     width="18"
     height="18"
     x="86"
     y="0.5"
     id="F4"
     style="fill:#e5d8b2;stroke:#000000" />
  <rect
     width="18"
     height="18"
     x="171.5"
     y="0.5"
     id="F8"
     style="fill:#e5d8b2;stroke:#000000" />
  <rect
     width="18"
     height="18"
     x="114.5"
     y="0.5"
     id="F5"
     style="fill:#e5d8b2;stroke:#000000" />
  <rect
     width="18"
     height="18"
     x="288.5"
     y="0.5"
     id="Prnt"
     style="fill:#e5d8b2;stroke:#000000" />
  <rect
     width="18"
     height="18"
     x="307.5"
     y="0.5"
     id="Scroll"
     style="fill:#e5d8b2;stroke:#000000" />
  <rect
     width="18"
     height="18"
     x="326.5"
     y="0.5"
     id="Pause"
     style="fill:#e5d8b2;stroke:#000000" />
  <rect
     width="21.979"
     height="21.979"
     x="347.16299"
     y="0.72100067"
     id="NMLK"
     style="fill:#e5d8b2;stroke:#000000" />
  <rect
     width="21.979"
     height="21.979"
     x="393.56"
     y="0.72100067"
     id="KPMU"
     style="fill:#e5d8b2;stroke:#000000" />
  <rect
     width="21.979"
     height="21.979"
     x="370.36301"
     y="0.72100067"
     id="KPDV"
     style="fill:#e5d8b2;stroke:#000000" />
  <rect
     width="21.979"
     height="21.979"
     x="416.76001"
     y="0.72100067"
     id="KPSU"
     style="fill:#e5d8b2;stroke:#000000" />
  <rect
     width="21.979"
     height="45.179001"
     x="416.76001"
     y="23.919998"
     id="KPAD"
     style="fill:#e5d8b2;stroke:#000000" />
  <rect
     width="21.979"
     height="21.979"
     x="347.16299"
     y="23.919998"
     id="KP7"
     style="fill:#e5d8b2;stroke:#000000" />
  <rect
     width="21.979"
     height="21.979"
     x="370.36301"
     y="23.919998"
     id="KP8"
     style="fill:#e5d8b2;stroke:#000000" />
  <rect
     width="21.979"
     height="21.979"
     x="393.56"
     y="23.919998"
     id="KP9"
     style="fill:#e5d8b2;stroke:#000000" />
  <rect
     width="21.979"
     height="21.979"
     x="347.16299"
     y="47.121002"
     id="KP4"
     style="fill:#e5d8b2;stroke:#000000" />
  <rect
     width="21.979"
     height="21.979"
     x="370.36301"
     y="47.121002"
     id="KP5"
     style="fill:#e5d8b2;stroke:#000000" />
  <rect
     width="21.979"
     height="21.979"
     x="393.56"
     y="47.121002"
     id="KP6"
     style="fill:#e5d8b2;stroke:#000000" />
  <rect
     width="21.979"
     height="21.979"
     x="347.16299"
     y="70.321999"
     id="KP1"
     style="fill:#e5d8b2;stroke:#000000" />
  <rect
     width="21.979"
     height="21.979"
     x="370.36301"
     y="70.321999"
     id="KP2"
     style="fill:#e5d8b2;stroke:#000000" />
  <rect
     width="21.979"
     height="21.979"
     x="393.56"
     y="70.321999"
     id="KP3"
     style="fill:#e5d8b2;stroke:#000000" />
  <rect
     width="21.979"
     height="45.178001"
     x="416.76001"
     y="70.321999"
     id="KPEN"
     style="fill:#e5d8b2;stroke:#000000" />
  <rect
     width="45.179001"
     height="21.979"
     x="347.16299"
     y="93.519997"
     id="KP0"
     style="fill:#e5d8b2;stroke:#000000" />
  <rect
     width="21.979"
     height="21.979"
     x="393.56"
     y="93.519997"
     id="KPDL"
     style="fill:#e5d8b2;stroke:#000000" />
  <rect
     width="13.40771"
     height="11.148364"
     x="440.539"
     y="0.72100067"
     id="hide"
     style="fill:#e5d8b2;stroke:#000000;stroke-width:1" />
  <rect
     width="13.40771"
     height="102.04673"
     x="440.539"
     y="12.869366"
     id="move"
     style="fill:#e5d8b2;stroke:#000000;stroke-width:1" />
</svg>
